<svg xmlns="http://www.w3.org/2000/svg" viewBox="0 0 32 32" fill="none">
  <defs>
    <linearGradient id="g" x1="0" y1="0" x2="1" y2="1">
      <stop offset="0%" stop-color="#8b5cf6"/>
      <stop offset="100%" stop-color="#7c3aed"/>
    </linearGradient>
  </defs>
  <rect width="32" height="32" rx="7" fill="url(#g)"/>
  <path d="M11 24V8h4.6q2.4 0 3.7 1.15t1.3 3.05q0 1.2-.5 2.05-.5.85-1.45 1.35v.2q1.1.3 1.75 1.2t.65 2.2v1.1q0 1.15.15 1.75.15.6.85.95v1H18.8q-.6-.35-.8-1.05-.2-.7-.2-1.75v-1.15q0-1.35-.85-2.05-.85-.7-2.35-.7H13.5V24zm2.5-11.45h2.25q1.2 0 1.85-.55.65-.55.65-1.7t-.65-1.7q-.65-.55-1.85-.55H13.5z" fill="#fff"/>
</svg>
